inDegrees=yes
name=ik_S55_A05_T02
DataType=double
version=3
OpenSimVersion=4.3-2021-08-27-4bc7ad9
endheader
time	pelvis_tilt	pelvis_list	pelvis_rotation	pelvis_tx	pelvis_ty	pelvis_tz	hip_flexion_r	hip_adduction_r	hip_rotation_r	knee_angle_r	knee_angle_r_beta	ankle_angle_r	subtalar_angle_r	mtp_angle_r	hip_flexion_l	hip_adduction_l	hip_rotation_l	knee_angle_l	knee_angle_l_beta	ankle_angle_l	subtalar_angle_l	mtp_angle_l	lumbar_extension	lumbar_bending	lumbar_rotation	arm_flex_r	arm_add_r	arm_rot_r	elbow_flex_r	pro_sup_r	wrist_flex_r	wrist_dev_r	arm_flex_l	arm_add_l	arm_rot_l	elbow_flex_l	pro_sup_l	wrist_flex_l	wrist_dev_l
0	0	0	0	0	0.9399999999999999	0	0	0	0	0	0	0	0	0	0	0	0	0	0	0	0	0	0	0	0	0	0	0	0	89.99999999963507	0	0	0	0	0	0	89.99999999869995	0	0
0.02	-3.493351977202252	0.3198696519176021	22.91130323118954	0	0.9399999999999999	0	4.547851033072665	-2.094706959416381	-1.525746154253379	6.875905678274379	0.1200071931424619	0	0	0	4.547851033072665	-2.094706959416381	-1.525746154253379	6.875905678274379	0.1200071931424619	0	0	0	-1.614997570580064	-1.149684296588594	2.989805293499368	17.2899239331886	-18.72862000357604	-12.33375163927269	57.06840119142678	119.0383717648796	0	0	19.03034517706102	-14.86610846258091	-3.724162632606233	60.47139800445134	140.7923989622253	0	0
0.04	-3.477606026329332	0.3188591666191155	22.94143392102036	0	0.9399999999999999	0	4.844622901838262	-2.247500318528327	-1.629370223123036	7.238462073327123	0.1263349959602935	0	0	0	4.844622901838262	-2.247500318528327	-1.629370223123036	7.238462073327123	0.1263349959602935	0	0	0	-1.60626224823223	-1.146018703115283	2.965596765173701	17.25767002015796	-18.75153870113712	-12.34273033947644	57.12178752466362	118.9713013389882	0	0	19.00662734318477	-14.89194318376423	-3.716794019451567	60.4756421483737	140.7059202758624	0	0
0.06	-3.492566336471264	0.3139072197325865	22.95482943902301	0	0.9399999999999999	0	5.122640479628242	-2.407344852256517	-1.725469571793143	7.640645470384261	0.1333544204357962	0	0	0	5.122640479628242	-2.407344852256517	-1.725469571793143	7.640645470384261	0.1333544204357962	0	0	0	-1.623979025158614	-1.140864128647504	2.955539988354207	17.27989717691508	-18.7354461207732	-12.35035638619363	57.10251632971688	118.9110376251749	0	0	19.03210624855671	-14.87464839494301	-3.732335360740561	60.47873285786444	140.7017616654644	0	0
0.08	-3.405007336024044	0.1929354490477178	22.40471972568209	0	0.9399999999999999	0	16.67635135923906	-7.63694126055298	-5.327194446981352	23.52791660187303	0.4106396108373203	0	0	0	16.67635135923906	-7.63694126055298	-5.327194446981352	23.52791660187303	0.4106396108373203	0	0	0	-1.65137401580576	-1.040861154050688	3.492426811681184	17.2691706835179	-18.72123101200151	-12.34570611159412	57.09418577496623	118.7970069618891	0	0	19.0238706490716	-14.90220645615798	-3.730006792888927	60.46621165149987	140.7797606678305	0	0
0.1	-3.418034458321623	0.2037256483233515	22.42015209426919	0	0.9399999999999999	0	16.75023738301682	-7.652727082809439	-5.349624609538541	23.59000122478227	0.4117231919219455	0	0	0	16.75023738301682	-7.652727082809439	-5.349624609538541	23.59000122478227	0.4117231919219455	0	0	0	-1.662019816549757	-1.021131492572974	3.48458582126439	17.26856998974511	-18.76654779213639	-12.33385953166749	57.13413455224713	118.7993259017781	0	0	19.04887752717115	-14.86631541584131	-3.73942273744235	60.48212557530886	140.7529977026572	0	0
0.12	-3.415216352534493	0.1976426650297422	22.42517240241258	0	0.9399999999999999	0	16.83226365150049	-7.669057233676595	-5.373807060441744	23.65935503842282	0.4129336443187878	0	0	0	16.83226365150049	-7.669057233676595	-5.373807060441744	23.65935503842282	0.4129336443187878	0	0	0	-1.665092790312245	-1.022465108950189	3.488881509110239	17.27028350276478	-18.75165101766433	-12.34723034227849	57.14985781731332	118.7455695050345	0	0	19.04196903027962	-14.85584414218609	-3.717197139475081	60.50038502202488	140.7551190079352	0	0
0.14	-3.417723980788932	0.2034843058559883	22.43389506537447	0	0.9399999999999999	0	16.90212129237021	-7.686209192822262	-5.396255530113732	23.71726040309085	0.4139442835868129	0	0	0	16.90212129237021	-7.686209192822262	-5.396255530113732	23.71726040309085	0.4139442835868129	0	0	0	-1.66742947703993	-1.012113249379323	3.484372000957249	17.23179020283632	-18.76045416777845	-12.32446914717205	57.17665834742331	118.7225093907523	0	0	19.05450139619973	-14.85021535651158	-3.709619169138538	60.50710957061638	140.7312257591365	0	0
0.16	-3.413150365057222	0.1995471177319266	22.43797867964454	0	0.9399999999999999	0	16.96987900492096	-7.695874006429371	-5.413769186207928	23.77626168688473	0.4149740502519195	0	0	0	16.96987900492096	-7.695874006429371	-5.413769186207928	23.77626168688473	0.4149740502519195	0	0	0	-1.667552465975908	-1.012908992918792	3.486735952237744	17.21371882045045	-18.75782414655656	-12.34363202028551	57.18428954004779	118.7352779589868	0	0	19.05405175139999	-14.84701872992338	-3.719003012474332	60.48495825174794	140.7551304710788	0	0
0.18	-3.411954922179953	0.192578918440997	22.44111186335922	0	0.9399999999999999	0	17.10647961473008	-7.720256272779549	-5.451855446119527	23.89327650440541	0.4170163440912758	0	0	0	17.10647961473008	-7.720256272779549	-5.451855446119527	23.89327650440541	0.4170163440912758	0	0	0	-1.6743801756847	-1.010562519486646	3.475243022651424	17.21403872987017	-18.74430022118684	-12.35374320405433	57.22400754215482	118.6519072304202	0	0	19.05774034625182	-14.8763881379866	-3.744976421776435	60.52328674345542	140.6877039819096	0	0
